<mxfile host="Electron" modified="2024-01-16T19:40:59.651Z" agent="Mozilla/5.0 (X11; Linux x86_64) AppleWebKit/537.36 (KHTML, like Gecko) draw.io/22.1.18 Chrome/120.0.6099.199 Electron/28.1.2 Safari/537.36" etag="N-7uQhf73b8C-9I48eff" version="22.1.18" type="device">
  <diagram name="Page-1" id="i2DMALY9Xvrg91dQCHIN">
    <mxGraphModel dx="1834" dy="1270" grid="0" gridSize="10" guides="1" tooltips="1" connect="1" arrows="1" fold="1" page="0" pageScale="1" pageWidth="850" pageHeight="1100" math="0" shadow="0">
      <root>
        <mxCell id="0" />
        <mxCell id="1" parent="0" />
        <mxCell id="XYY6bWEJs2ji5yLr34Nl-1" value="" style="rounded=0;whiteSpace=wrap;html=1;fontSize=16;fillColor=#ffe6cc;strokeColor=#d79b00;" parent="1" vertex="1">
          <mxGeometry x="-242" y="-230" width="64" height="64" as="geometry" />
        </mxCell>
        <mxCell id="XYY6bWEJs2ji5yLr34Nl-3" value="" style="rounded=0;whiteSpace=wrap;html=1;fontSize=16;fillColor=#ffe6cc;strokeColor=#d79b00;" parent="1" vertex="1">
          <mxGeometry x="-178" y="-230" width="64" height="64" as="geometry" />
        </mxCell>
        <mxCell id="XYY6bWEJs2ji5yLr34Nl-4" value="" style="rounded=0;whiteSpace=wrap;html=1;fontSize=16;fillColor=#ffe6cc;strokeColor=#d79b00;" parent="1" vertex="1">
          <mxGeometry x="-114" y="-230" width="64" height="64" as="geometry" />
        </mxCell>
        <mxCell id="XYY6bWEJs2ji5yLr34Nl-10" value="" style="rounded=0;whiteSpace=wrap;html=1;fontSize=16;fillColor=#e1d5e7;strokeColor=#9673a6;" parent="1" vertex="1">
          <mxGeometry x="-242" y="-166" width="64" height="64" as="geometry" />
        </mxCell>
        <mxCell id="XYY6bWEJs2ji5yLr34Nl-12" value="" style="rounded=0;whiteSpace=wrap;html=1;fontSize=16;fillColor=#e1d5e7;strokeColor=#9673a6;" parent="1" vertex="1">
          <mxGeometry x="-178" y="-166" width="64" height="64" as="geometry" />
        </mxCell>
        <mxCell id="XYY6bWEJs2ji5yLr34Nl-13" value="" style="rounded=0;whiteSpace=wrap;html=1;fontSize=16;fillColor=#e1d5e7;strokeColor=#9673a6;" parent="1" vertex="1">
          <mxGeometry x="-114" y="-166" width="64" height="64" as="geometry" />
        </mxCell>
        <mxCell id="XYY6bWEJs2ji5yLr34Nl-22" value="" style="rounded=0;whiteSpace=wrap;html=1;fontSize=16;fillColor=#e1d5e7;strokeColor=#9673a6;" parent="1" vertex="1">
          <mxGeometry x="-242" y="-102" width="64" height="64" as="geometry" />
        </mxCell>
        <mxCell id="XYY6bWEJs2ji5yLr34Nl-23" value="1" style="text;html=1;align=center;verticalAlign=middle;resizable=0;points=[];autosize=1;strokeColor=none;fillColor=none;fontSize=16;" parent="1" vertex="1">
          <mxGeometry x="-223.5" y="-85.5" width="27" height="31" as="geometry" />
        </mxCell>
        <mxCell id="XYY6bWEJs2ji5yLr34Nl-24" value="" style="rounded=0;whiteSpace=wrap;html=1;fontSize=16;fillColor=#e1d5e7;strokeColor=#9673a6;" parent="1" vertex="1">
          <mxGeometry x="-178" y="-102" width="64" height="64" as="geometry" />
        </mxCell>
        <mxCell id="XYY6bWEJs2ji5yLr34Nl-25" value="" style="rounded=0;whiteSpace=wrap;html=1;fontSize=16;fillColor=#e1d5e7;strokeColor=#9673a6;" parent="1" vertex="1">
          <mxGeometry x="-114" y="-102" width="64" height="64" as="geometry" />
        </mxCell>
        <mxCell id="XYY6bWEJs2ji5yLr34Nl-26" value="6" style="text;html=1;align=center;verticalAlign=middle;resizable=0;points=[];autosize=1;fontSize=16;" parent="1" vertex="1">
          <mxGeometry x="-159.5" y="-213.5" width="27" height="31" as="geometry" />
        </mxCell>
        <mxCell id="XYY6bWEJs2ji5yLr34Nl-32" value="" style="rounded=0;whiteSpace=wrap;html=1;fontSize=16;fillColor=#d5e8d4;strokeColor=#82b366;" parent="1" vertex="1">
          <mxGeometry x="-50" y="-230" width="64" height="64" as="geometry" />
        </mxCell>
        <mxCell id="XYY6bWEJs2ji5yLr34Nl-33" value="2" style="text;html=1;align=center;verticalAlign=middle;resizable=0;points=[];autosize=1;strokeColor=none;fillColor=none;fontSize=16;" parent="1" vertex="1">
          <mxGeometry x="-31.5" y="-213.5" width="27" height="31" as="geometry" />
        </mxCell>
        <mxCell id="XYY6bWEJs2ji5yLr34Nl-34" value="" style="rounded=0;whiteSpace=wrap;html=1;fontSize=16;fillColor=#d5e8d4;strokeColor=#82b366;" parent="1" vertex="1">
          <mxGeometry x="14" y="-230" width="64" height="64" as="geometry" />
        </mxCell>
        <mxCell id="XYY6bWEJs2ji5yLr34Nl-35" value="" style="rounded=0;whiteSpace=wrap;html=1;fontSize=16;" parent="1" vertex="1">
          <mxGeometry x="78" y="-230" width="64" height="64" as="geometry" />
        </mxCell>
        <mxCell id="XYY6bWEJs2ji5yLr34Nl-36" value="" style="rounded=0;whiteSpace=wrap;html=1;fontSize=16;" parent="1" vertex="1">
          <mxGeometry x="-50" y="-166" width="64" height="64" as="geometry" />
        </mxCell>
        <mxCell id="XYY6bWEJs2ji5yLr34Nl-38" value="" style="rounded=0;whiteSpace=wrap;html=1;fontSize=16;" parent="1" vertex="1">
          <mxGeometry x="14" y="-166" width="64" height="64" as="geometry" />
        </mxCell>
        <mxCell id="XYY6bWEJs2ji5yLr34Nl-39" value="" style="rounded=0;whiteSpace=wrap;html=1;fontSize=16;" parent="1" vertex="1">
          <mxGeometry x="78" y="-166" width="64" height="64" as="geometry" />
        </mxCell>
        <mxCell id="XYY6bWEJs2ji5yLr34Nl-40" value="" style="rounded=0;whiteSpace=wrap;html=1;fontSize=16;" parent="1" vertex="1">
          <mxGeometry x="-50" y="-102" width="64" height="64" as="geometry" />
        </mxCell>
        <mxCell id="XYY6bWEJs2ji5yLr34Nl-41" value="6" style="text;html=1;align=center;verticalAlign=middle;resizable=0;points=[];autosize=1;strokeColor=none;fillColor=none;fontSize=16;" parent="1" vertex="1">
          <mxGeometry x="-31.5" y="-85.5" width="27" height="31" as="geometry" />
        </mxCell>
        <mxCell id="XYY6bWEJs2ji5yLr34Nl-42" value="" style="rounded=0;whiteSpace=wrap;html=1;fontSize=16;" parent="1" vertex="1">
          <mxGeometry x="14" y="-102" width="64" height="64" as="geometry" />
        </mxCell>
        <mxCell id="XYY6bWEJs2ji5yLr34Nl-43" value="" style="rounded=0;whiteSpace=wrap;html=1;fontSize=16;" parent="1" vertex="1">
          <mxGeometry x="78" y="-102" width="64" height="64" as="geometry" />
        </mxCell>
        <mxCell id="XYY6bWEJs2ji5yLr34Nl-45" value="9" style="text;html=1;align=center;verticalAlign=middle;resizable=0;points=[];autosize=1;strokeColor=none;fillColor=none;fontSize=16;" parent="1" vertex="1">
          <mxGeometry x="96.5" y="-213.5" width="27" height="31" as="geometry" />
        </mxCell>
        <mxCell id="XYY6bWEJs2ji5yLr34Nl-46" value="3" style="text;html=1;align=center;verticalAlign=middle;resizable=0;points=[];autosize=1;strokeColor=none;fillColor=none;fontSize=16;" parent="1" vertex="1">
          <mxGeometry x="32.5" y="-149.5" width="27" height="31" as="geometry" />
        </mxCell>
        <mxCell id="XYY6bWEJs2ji5yLr34Nl-50" value="" style="rounded=0;whiteSpace=wrap;html=1;fontSize=16;" parent="1" vertex="1">
          <mxGeometry x="142" y="-230" width="64" height="64" as="geometry" />
        </mxCell>
        <mxCell id="XYY6bWEJs2ji5yLr34Nl-52" value="" style="rounded=0;whiteSpace=wrap;html=1;fontSize=16;" parent="1" vertex="1">
          <mxGeometry x="206" y="-230" width="64" height="64" as="geometry" />
        </mxCell>
        <mxCell id="XYY6bWEJs2ji5yLr34Nl-53" value="" style="rounded=0;whiteSpace=wrap;html=1;fontSize=16;" parent="1" vertex="1">
          <mxGeometry x="270" y="-230" width="64" height="64" as="geometry" />
        </mxCell>
        <mxCell id="XYY6bWEJs2ji5yLr34Nl-54" value="" style="rounded=0;whiteSpace=wrap;html=1;fontSize=16;" parent="1" vertex="1">
          <mxGeometry x="142" y="-166" width="64" height="64" as="geometry" />
        </mxCell>
        <mxCell id="XYY6bWEJs2ji5yLr34Nl-56" value="" style="rounded=0;whiteSpace=wrap;html=1;fontSize=16;" parent="1" vertex="1">
          <mxGeometry x="206" y="-166" width="64" height="64" as="geometry" />
        </mxCell>
        <mxCell id="XYY6bWEJs2ji5yLr34Nl-57" value="" style="rounded=0;whiteSpace=wrap;html=1;fontSize=16;" parent="1" vertex="1">
          <mxGeometry x="270" y="-166" width="64" height="64" as="geometry" />
        </mxCell>
        <mxCell id="XYY6bWEJs2ji5yLr34Nl-58" value="" style="rounded=0;whiteSpace=wrap;html=1;fontSize=16;" parent="1" vertex="1">
          <mxGeometry x="142" y="-102" width="64" height="64" as="geometry" />
        </mxCell>
        <mxCell id="XYY6bWEJs2ji5yLr34Nl-60" value="" style="rounded=0;whiteSpace=wrap;html=1;fontSize=16;" parent="1" vertex="1">
          <mxGeometry x="206" y="-102" width="64" height="64" as="geometry" />
        </mxCell>
        <mxCell id="XYY6bWEJs2ji5yLr34Nl-61" value="" style="rounded=0;whiteSpace=wrap;html=1;fontSize=16;" parent="1" vertex="1">
          <mxGeometry x="270" y="-102" width="64" height="64" as="geometry" />
        </mxCell>
        <mxCell id="XYY6bWEJs2ji5yLr34Nl-64" value="1" style="text;html=1;align=center;verticalAlign=middle;resizable=0;points=[];autosize=1;strokeColor=none;fillColor=none;fontSize=16;" parent="1" vertex="1">
          <mxGeometry x="224.5" y="-149.5" width="27" height="31" as="geometry" />
        </mxCell>
        <mxCell id="XYY6bWEJs2ji5yLr34Nl-67" value="9" style="text;html=1;align=center;verticalAlign=middle;resizable=0;points=[];autosize=1;strokeColor=none;fillColor=none;fontSize=16;" parent="1" vertex="1">
          <mxGeometry x="288.5" y="-85.5" width="27" height="31" as="geometry" />
        </mxCell>
        <mxCell id="XYY6bWEJs2ji5yLr34Nl-68" value="" style="rounded=0;whiteSpace=wrap;html=1;fontSize=16;" parent="1" vertex="1">
          <mxGeometry x="-242" y="-38" width="64" height="64" as="geometry" />
        </mxCell>
        <mxCell id="XYY6bWEJs2ji5yLr34Nl-69" value="4" style="text;html=1;align=center;verticalAlign=middle;resizable=0;points=[];autosize=1;strokeColor=none;fillColor=none;fontSize=16;" parent="1" vertex="1">
          <mxGeometry x="-223.5" y="-21.5" width="27" height="31" as="geometry" />
        </mxCell>
        <mxCell id="XYY6bWEJs2ji5yLr34Nl-70" value="" style="rounded=0;whiteSpace=wrap;html=1;fontSize=16;" parent="1" vertex="1">
          <mxGeometry x="-178" y="-38" width="64" height="64" as="geometry" />
        </mxCell>
        <mxCell id="XYY6bWEJs2ji5yLr34Nl-71" value="" style="rounded=0;whiteSpace=wrap;html=1;fontSize=16;" parent="1" vertex="1">
          <mxGeometry x="-114" y="-38" width="64" height="64" as="geometry" />
        </mxCell>
        <mxCell id="XYY6bWEJs2ji5yLr34Nl-72" value="" style="rounded=0;whiteSpace=wrap;html=1;fontSize=16;" parent="1" vertex="1">
          <mxGeometry x="-242" y="26" width="64" height="64" as="geometry" />
        </mxCell>
        <mxCell id="XYY6bWEJs2ji5yLr34Nl-74" value="" style="rounded=0;whiteSpace=wrap;html=1;fontSize=16;" parent="1" vertex="1">
          <mxGeometry x="-178" y="26" width="64" height="64" as="geometry" />
        </mxCell>
        <mxCell id="XYY6bWEJs2ji5yLr34Nl-75" value="" style="rounded=0;whiteSpace=wrap;html=1;fontSize=16;" parent="1" vertex="1">
          <mxGeometry x="-114" y="26" width="64" height="64" as="geometry" />
        </mxCell>
        <mxCell id="XYY6bWEJs2ji5yLr34Nl-76" value="" style="rounded=0;whiteSpace=wrap;html=1;fontSize=16;" parent="1" vertex="1">
          <mxGeometry x="-242" y="90" width="64" height="64" as="geometry" />
        </mxCell>
        <mxCell id="XYY6bWEJs2ji5yLr34Nl-78" value="" style="rounded=0;whiteSpace=wrap;html=1;fontSize=16;" parent="1" vertex="1">
          <mxGeometry x="-178" y="90" width="64" height="64" as="geometry" />
        </mxCell>
        <mxCell id="XYY6bWEJs2ji5yLr34Nl-79" value="" style="rounded=0;whiteSpace=wrap;html=1;fontSize=16;" parent="1" vertex="1">
          <mxGeometry x="-114" y="90" width="64" height="64" as="geometry" />
        </mxCell>
        <mxCell id="XYY6bWEJs2ji5yLr34Nl-80" value="2" style="text;html=1;align=center;verticalAlign=middle;resizable=0;points=[];autosize=1;strokeColor=none;fillColor=none;fontSize=16;" parent="1" vertex="1">
          <mxGeometry x="-159.5" y="-21.5" width="27" height="31" as="geometry" />
        </mxCell>
        <mxCell id="XYY6bWEJs2ji5yLr34Nl-83" value="5" style="text;html=1;align=center;verticalAlign=middle;resizable=0;points=[];autosize=1;strokeColor=none;fillColor=none;fontSize=16;" parent="1" vertex="1">
          <mxGeometry x="-95.5" y="42.5" width="27" height="31" as="geometry" />
        </mxCell>
        <mxCell id="XYY6bWEJs2ji5yLr34Nl-84" value="8" style="text;html=1;align=center;verticalAlign=middle;resizable=0;points=[];autosize=1;strokeColor=none;fillColor=none;fontSize=16;" parent="1" vertex="1">
          <mxGeometry x="-159.5" y="106.5" width="27" height="31" as="geometry" />
        </mxCell>
        <mxCell id="XYY6bWEJs2ji5yLr34Nl-85" value="3" style="text;html=1;align=center;verticalAlign=middle;resizable=0;points=[];autosize=1;strokeColor=none;fillColor=none;fontSize=16;" parent="1" vertex="1">
          <mxGeometry x="-95.5" y="106.5" width="27" height="31" as="geometry" />
        </mxCell>
        <mxCell id="XYY6bWEJs2ji5yLr34Nl-86" value="" style="rounded=0;whiteSpace=wrap;html=1;fontSize=16;" parent="1" vertex="1">
          <mxGeometry x="-50" y="-38" width="64" height="64" as="geometry" />
        </mxCell>
        <mxCell id="XYY6bWEJs2ji5yLr34Nl-87" value="5" style="text;html=1;align=center;verticalAlign=middle;resizable=0;points=[];autosize=1;strokeColor=none;fillColor=none;fontSize=16;" parent="1" vertex="1">
          <mxGeometry x="-31.5" y="-21.5" width="27" height="31" as="geometry" />
        </mxCell>
        <mxCell id="XYY6bWEJs2ji5yLr34Nl-88" value="" style="rounded=0;whiteSpace=wrap;html=1;fontSize=16;" parent="1" vertex="1">
          <mxGeometry x="14" y="-38" width="64" height="64" as="geometry" />
        </mxCell>
        <mxCell id="XYY6bWEJs2ji5yLr34Nl-89" value="" style="rounded=0;whiteSpace=wrap;html=1;fontSize=16;" parent="1" vertex="1">
          <mxGeometry x="78" y="-38" width="64" height="64" as="geometry" />
        </mxCell>
        <mxCell id="XYY6bWEJs2ji5yLr34Nl-90" value="" style="rounded=0;whiteSpace=wrap;html=1;fontSize=16;" parent="1" vertex="1">
          <mxGeometry x="-50" y="26" width="64" height="64" as="geometry" />
        </mxCell>
        <mxCell id="XYY6bWEJs2ji5yLr34Nl-91" value="3" style="text;html=1;align=center;verticalAlign=middle;resizable=0;points=[];autosize=1;strokeColor=none;fillColor=none;fontSize=16;" parent="1" vertex="1">
          <mxGeometry x="-31.5" y="42.5" width="27" height="31" as="geometry" />
        </mxCell>
        <mxCell id="XYY6bWEJs2ji5yLr34Nl-92" value="" style="rounded=0;whiteSpace=wrap;html=1;fontSize=16;" parent="1" vertex="1">
          <mxGeometry x="14" y="26" width="64" height="64" as="geometry" />
        </mxCell>
        <mxCell id="XYY6bWEJs2ji5yLr34Nl-93" value="" style="rounded=0;whiteSpace=wrap;html=1;fontSize=16;" parent="1" vertex="1">
          <mxGeometry x="78" y="26" width="64" height="64" as="geometry" />
        </mxCell>
        <mxCell id="XYY6bWEJs2ji5yLr34Nl-94" value="" style="rounded=0;whiteSpace=wrap;html=1;fontSize=16;" parent="1" vertex="1">
          <mxGeometry x="-50" y="90" width="64" height="64" as="geometry" />
        </mxCell>
        <mxCell id="XYY6bWEJs2ji5yLr34Nl-95" value="1" style="text;html=1;align=center;verticalAlign=middle;resizable=0;points=[];autosize=1;strokeColor=none;fillColor=none;fontSize=16;" parent="1" vertex="1">
          <mxGeometry x="-31.5" y="106.5" width="27" height="31" as="geometry" />
        </mxCell>
        <mxCell id="XYY6bWEJs2ji5yLr34Nl-96" value="" style="rounded=0;whiteSpace=wrap;html=1;fontSize=16;" parent="1" vertex="1">
          <mxGeometry x="14" y="90" width="64" height="64" as="geometry" />
        </mxCell>
        <mxCell id="XYY6bWEJs2ji5yLr34Nl-97" value="" style="rounded=0;whiteSpace=wrap;html=1;fontSize=16;" parent="1" vertex="1">
          <mxGeometry x="78" y="90" width="64" height="64" as="geometry" />
        </mxCell>
        <mxCell id="XYY6bWEJs2ji5yLr34Nl-101" value="2" style="text;html=1;align=center;verticalAlign=middle;resizable=0;points=[];autosize=1;strokeColor=none;fillColor=none;fontSize=16;" parent="1" vertex="1">
          <mxGeometry x="96.5" y="42.5" width="27" height="31" as="geometry" />
        </mxCell>
        <mxCell id="XYY6bWEJs2ji5yLr34Nl-104" value="" style="rounded=0;whiteSpace=wrap;html=1;fontSize=16;" parent="1" vertex="1">
          <mxGeometry x="142" y="-38" width="64" height="64" as="geometry" />
        </mxCell>
        <mxCell id="XYY6bWEJs2ji5yLr34Nl-106" value="" style="rounded=0;whiteSpace=wrap;html=1;fontSize=16;" parent="1" vertex="1">
          <mxGeometry x="206" y="-38" width="64" height="64" as="geometry" />
        </mxCell>
        <mxCell id="XYY6bWEJs2ji5yLr34Nl-107" value="" style="rounded=0;whiteSpace=wrap;html=1;fontSize=16;" parent="1" vertex="1">
          <mxGeometry x="270" y="-38" width="64" height="64" as="geometry" />
        </mxCell>
        <mxCell id="XYY6bWEJs2ji5yLr34Nl-108" value="" style="rounded=0;whiteSpace=wrap;html=1;fontSize=16;" parent="1" vertex="1">
          <mxGeometry x="142" y="26" width="64" height="64" as="geometry" />
        </mxCell>
        <mxCell id="XYY6bWEJs2ji5yLr34Nl-109" value="8" style="text;html=1;align=center;verticalAlign=middle;resizable=0;points=[];autosize=1;strokeColor=none;fillColor=none;fontSize=16;" parent="1" vertex="1">
          <mxGeometry x="160.5" y="42.5" width="27" height="31" as="geometry" />
        </mxCell>
        <mxCell id="XYY6bWEJs2ji5yLr34Nl-110" value="" style="rounded=0;whiteSpace=wrap;html=1;fontSize=16;" parent="1" vertex="1">
          <mxGeometry x="206" y="26" width="64" height="64" as="geometry" />
        </mxCell>
        <mxCell id="XYY6bWEJs2ji5yLr34Nl-111" value="" style="rounded=0;whiteSpace=wrap;html=1;fontSize=16;" parent="1" vertex="1">
          <mxGeometry x="270" y="26" width="64" height="64" as="geometry" />
        </mxCell>
        <mxCell id="XYY6bWEJs2ji5yLr34Nl-112" value="" style="rounded=0;whiteSpace=wrap;html=1;fontSize=16;" parent="1" vertex="1">
          <mxGeometry x="142" y="90" width="64" height="64" as="geometry" />
        </mxCell>
        <mxCell id="XYY6bWEJs2ji5yLr34Nl-114" value="" style="rounded=0;whiteSpace=wrap;html=1;fontSize=16;" parent="1" vertex="1">
          <mxGeometry x="206" y="90" width="64" height="64" as="geometry" />
        </mxCell>
        <mxCell id="XYY6bWEJs2ji5yLr34Nl-115" value="" style="rounded=0;whiteSpace=wrap;html=1;fontSize=16;" parent="1" vertex="1">
          <mxGeometry x="270" y="90" width="64" height="64" as="geometry" />
        </mxCell>
        <mxCell id="XYY6bWEJs2ji5yLr34Nl-116" value="9" style="text;html=1;align=center;verticalAlign=middle;resizable=0;points=[];autosize=1;strokeColor=none;fillColor=none;fontSize=16;" parent="1" vertex="1">
          <mxGeometry x="224.5" y="-21.5" width="27" height="31" as="geometry" />
        </mxCell>
        <mxCell id="XYY6bWEJs2ji5yLr34Nl-118" value="6" style="text;html=1;align=center;verticalAlign=middle;resizable=0;points=[];autosize=1;strokeColor=none;fillColor=none;fontSize=16;" parent="1" vertex="1">
          <mxGeometry x="224.5" y="42.5" width="27" height="31" as="geometry" />
        </mxCell>
        <mxCell id="XYY6bWEJs2ji5yLr34Nl-120" value="2" style="text;html=1;align=center;verticalAlign=middle;resizable=0;points=[];autosize=1;strokeColor=none;fillColor=none;fontSize=16;" parent="1" vertex="1">
          <mxGeometry x="224.5" y="106.5" width="27" height="31" as="geometry" />
        </mxCell>
        <mxCell id="XYY6bWEJs2ji5yLr34Nl-121" value="4" style="text;html=1;align=center;verticalAlign=middle;resizable=0;points=[];autosize=1;strokeColor=none;fillColor=none;fontSize=16;" parent="1" vertex="1">
          <mxGeometry x="288.5" y="106.5" width="27" height="31" as="geometry" />
        </mxCell>
        <mxCell id="XYY6bWEJs2ji5yLr34Nl-122" value="" style="rounded=0;whiteSpace=wrap;html=1;fontSize=16;" parent="1" vertex="1">
          <mxGeometry x="-242" y="154" width="64" height="64" as="geometry" />
        </mxCell>
        <mxCell id="XYY6bWEJs2ji5yLr34Nl-123" value="8" style="text;html=1;align=center;verticalAlign=middle;resizable=0;points=[];autosize=1;strokeColor=none;fillColor=none;fontSize=16;" parent="1" vertex="1">
          <mxGeometry x="-223.5" y="170.5" width="27" height="31" as="geometry" />
        </mxCell>
        <mxCell id="XYY6bWEJs2ji5yLr34Nl-124" value="" style="rounded=0;whiteSpace=wrap;html=1;fontSize=16;" parent="1" vertex="1">
          <mxGeometry x="-178" y="154" width="64" height="64" as="geometry" />
        </mxCell>
        <mxCell id="XYY6bWEJs2ji5yLr34Nl-125" value="" style="rounded=0;whiteSpace=wrap;html=1;fontSize=16;" parent="1" vertex="1">
          <mxGeometry x="-114" y="154" width="64" height="64" as="geometry" />
        </mxCell>
        <mxCell id="XYY6bWEJs2ji5yLr34Nl-126" value="" style="rounded=0;whiteSpace=wrap;html=1;fontSize=16;" parent="1" vertex="1">
          <mxGeometry x="-242" y="218" width="64" height="64" as="geometry" />
        </mxCell>
        <mxCell id="XYY6bWEJs2ji5yLr34Nl-127" value="3" style="text;html=1;align=center;verticalAlign=middle;resizable=0;points=[];autosize=1;strokeColor=none;fillColor=none;fontSize=16;" parent="1" vertex="1">
          <mxGeometry x="-223.5" y="234.5" width="27" height="31" as="geometry" />
        </mxCell>
        <mxCell id="XYY6bWEJs2ji5yLr34Nl-128" value="" style="rounded=0;whiteSpace=wrap;html=1;fontSize=16;" parent="1" vertex="1">
          <mxGeometry x="-178" y="218" width="64" height="64" as="geometry" />
        </mxCell>
        <mxCell id="XYY6bWEJs2ji5yLr34Nl-129" value="" style="rounded=0;whiteSpace=wrap;html=1;fontSize=16;" parent="1" vertex="1">
          <mxGeometry x="-114" y="218" width="64" height="64" as="geometry" />
        </mxCell>
        <mxCell id="XYY6bWEJs2ji5yLr34Nl-130" value="" style="rounded=0;whiteSpace=wrap;html=1;fontSize=16;" parent="1" vertex="1">
          <mxGeometry x="-242" y="282" width="64" height="64" as="geometry" />
        </mxCell>
        <mxCell id="XYY6bWEJs2ji5yLr34Nl-131" value="2" style="text;html=1;align=center;verticalAlign=middle;resizable=0;points=[];autosize=1;strokeColor=none;fillColor=none;fontSize=16;" parent="1" vertex="1">
          <mxGeometry x="-223.5" y="298.5" width="27" height="31" as="geometry" />
        </mxCell>
        <mxCell id="XYY6bWEJs2ji5yLr34Nl-132" value="" style="rounded=0;whiteSpace=wrap;html=1;fontSize=16;" parent="1" vertex="1">
          <mxGeometry x="-178" y="282" width="64" height="64" as="geometry" />
        </mxCell>
        <mxCell id="XYY6bWEJs2ji5yLr34Nl-133" value="" style="rounded=0;whiteSpace=wrap;html=1;fontSize=16;" parent="1" vertex="1">
          <mxGeometry x="-114" y="282" width="64" height="64" as="geometry" />
        </mxCell>
        <mxCell id="XYY6bWEJs2ji5yLr34Nl-134" value="7" style="text;html=1;align=center;verticalAlign=middle;resizable=0;points=[];autosize=1;strokeColor=none;fillColor=none;fontSize=16;" parent="1" vertex="1">
          <mxGeometry x="-159.5" y="170.5" width="27" height="31" as="geometry" />
        </mxCell>
        <mxCell id="XYY6bWEJs2ji5yLr34Nl-136" value="4" style="text;html=1;align=center;verticalAlign=middle;resizable=0;points=[];autosize=1;strokeColor=none;fillColor=none;fontSize=16;" parent="1" vertex="1">
          <mxGeometry x="-159.5" y="234.5" width="27" height="31" as="geometry" />
        </mxCell>
        <mxCell id="XYY6bWEJs2ji5yLr34Nl-139" value="6" style="text;html=1;align=center;verticalAlign=middle;resizable=0;points=[];autosize=1;strokeColor=none;fillColor=none;fontSize=16;" parent="1" vertex="1">
          <mxGeometry x="-95.5" y="298.5" width="27" height="31" as="geometry" />
        </mxCell>
        <mxCell id="XYY6bWEJs2ji5yLr34Nl-140" value="" style="rounded=0;whiteSpace=wrap;html=1;fontSize=16;" parent="1" vertex="1">
          <mxGeometry x="-50" y="154" width="64" height="64" as="geometry" />
        </mxCell>
        <mxCell id="XYY6bWEJs2ji5yLr34Nl-141" value="9" style="text;html=1;align=center;verticalAlign=middle;resizable=0;points=[];autosize=1;strokeColor=none;fillColor=none;fontSize=16;" parent="1" vertex="1">
          <mxGeometry x="-31.5" y="170.5" width="27" height="31" as="geometry" />
        </mxCell>
        <mxCell id="XYY6bWEJs2ji5yLr34Nl-142" value="" style="rounded=0;whiteSpace=wrap;html=1;fontSize=16;" parent="1" vertex="1">
          <mxGeometry x="14" y="154" width="64" height="64" as="geometry" />
        </mxCell>
        <mxCell id="XYY6bWEJs2ji5yLr34Nl-143" value="" style="rounded=0;whiteSpace=wrap;html=1;fontSize=16;" parent="1" vertex="1">
          <mxGeometry x="78" y="154" width="64" height="64" as="geometry" />
        </mxCell>
        <mxCell id="XYY6bWEJs2ji5yLr34Nl-144" value="" style="rounded=0;whiteSpace=wrap;html=1;fontSize=16;" parent="1" vertex="1">
          <mxGeometry x="-50" y="218" width="64" height="64" as="geometry" />
        </mxCell>
        <mxCell id="XYY6bWEJs2ji5yLr34Nl-146" value="" style="rounded=0;whiteSpace=wrap;html=1;fontSize=16;" parent="1" vertex="1">
          <mxGeometry x="14" y="218" width="64" height="64" as="geometry" />
        </mxCell>
        <mxCell id="XYY6bWEJs2ji5yLr34Nl-147" value="" style="rounded=0;whiteSpace=wrap;html=1;fontSize=16;" parent="1" vertex="1">
          <mxGeometry x="78" y="218" width="64" height="64" as="geometry" />
        </mxCell>
        <mxCell id="XYY6bWEJs2ji5yLr34Nl-148" value="" style="rounded=0;whiteSpace=wrap;html=1;fontSize=16;" parent="1" vertex="1">
          <mxGeometry x="-50" y="282" width="64" height="64" as="geometry" />
        </mxCell>
        <mxCell id="XYY6bWEJs2ji5yLr34Nl-150" value="" style="rounded=0;whiteSpace=wrap;html=1;fontSize=16;" parent="1" vertex="1">
          <mxGeometry x="14" y="282" width="64" height="64" as="geometry" />
        </mxCell>
        <mxCell id="XYY6bWEJs2ji5yLr34Nl-151" value="" style="rounded=0;whiteSpace=wrap;html=1;fontSize=16;" parent="1" vertex="1">
          <mxGeometry x="78" y="282" width="64" height="64" as="geometry" />
        </mxCell>
        <mxCell id="XYY6bWEJs2ji5yLr34Nl-153" value="6" style="text;html=1;align=center;verticalAlign=middle;resizable=0;points=[];autosize=1;strokeColor=none;fillColor=none;fontSize=16;" parent="1" vertex="1">
          <mxGeometry x="96.5" y="170.5" width="27" height="31" as="geometry" />
        </mxCell>
        <mxCell id="XYY6bWEJs2ji5yLr34Nl-154" value="5" style="text;html=1;align=center;verticalAlign=middle;resizable=0;points=[];autosize=1;strokeColor=none;fillColor=none;fontSize=16;" parent="1" vertex="1">
          <mxGeometry x="32.5" y="234.5" width="27" height="31" as="geometry" />
        </mxCell>
        <mxCell id="XYY6bWEJs2ji5yLr34Nl-156" value="7" style="text;html=1;align=center;verticalAlign=middle;resizable=0;points=[];autosize=1;strokeColor=none;fillColor=none;fontSize=16;" parent="1" vertex="1">
          <mxGeometry x="32.5" y="298.5" width="27" height="31" as="geometry" />
        </mxCell>
        <mxCell id="XYY6bWEJs2ji5yLr34Nl-157" value="3" style="text;html=1;align=center;verticalAlign=middle;resizable=0;points=[];autosize=1;strokeColor=none;fillColor=none;fontSize=16;" parent="1" vertex="1">
          <mxGeometry x="96.5" y="298.5" width="27" height="31" as="geometry" />
        </mxCell>
        <mxCell id="XYY6bWEJs2ji5yLr34Nl-158" value="" style="rounded=0;whiteSpace=wrap;html=1;fontSize=16;" parent="1" vertex="1">
          <mxGeometry x="142" y="154" width="64" height="64" as="geometry" />
        </mxCell>
        <mxCell id="XYY6bWEJs2ji5yLr34Nl-160" value="" style="rounded=0;whiteSpace=wrap;html=1;fontSize=16;" parent="1" vertex="1">
          <mxGeometry x="206" y="154" width="64" height="64" as="geometry" />
        </mxCell>
        <mxCell id="XYY6bWEJs2ji5yLr34Nl-161" value="" style="rounded=0;whiteSpace=wrap;html=1;fontSize=16;" parent="1" vertex="1">
          <mxGeometry x="270" y="154" width="64" height="64" as="geometry" />
        </mxCell>
        <mxCell id="XYY6bWEJs2ji5yLr34Nl-162" value="" style="rounded=0;whiteSpace=wrap;html=1;fontSize=16;" parent="1" vertex="1">
          <mxGeometry x="142" y="218" width="64" height="64" as="geometry" />
        </mxCell>
        <mxCell id="XYY6bWEJs2ji5yLr34Nl-163" value="2" style="text;html=1;align=center;verticalAlign=middle;resizable=0;points=[];autosize=1;strokeColor=none;fillColor=none;fontSize=16;" parent="1" vertex="1">
          <mxGeometry x="160.5" y="234.5" width="27" height="31" as="geometry" />
        </mxCell>
        <mxCell id="XYY6bWEJs2ji5yLr34Nl-164" value="" style="rounded=0;whiteSpace=wrap;html=1;fontSize=16;" parent="1" vertex="1">
          <mxGeometry x="206" y="218" width="64" height="64" as="geometry" />
        </mxCell>
        <mxCell id="XYY6bWEJs2ji5yLr34Nl-165" value="" style="rounded=0;whiteSpace=wrap;html=1;fontSize=16;" parent="1" vertex="1">
          <mxGeometry x="270" y="218" width="64" height="64" as="geometry" />
        </mxCell>
        <mxCell id="XYY6bWEJs2ji5yLr34Nl-166" value="" style="rounded=0;whiteSpace=wrap;html=1;fontSize=16;" parent="1" vertex="1">
          <mxGeometry x="142" y="282" width="64" height="64" as="geometry" />
        </mxCell>
        <mxCell id="XYY6bWEJs2ji5yLr34Nl-168" value="" style="rounded=0;whiteSpace=wrap;html=1;fontSize=16;fillColor=#d5e8d4;strokeColor=#82b366;" parent="1" vertex="1">
          <mxGeometry x="206" y="282" width="64" height="64" as="geometry" />
        </mxCell>
        <mxCell id="XYY6bWEJs2ji5yLr34Nl-169" value="" style="rounded=0;whiteSpace=wrap;html=1;fontSize=16;fillColor=#d5e8d4;strokeColor=#82b366;" parent="1" vertex="1">
          <mxGeometry x="270" y="282" width="64" height="64" as="geometry" />
        </mxCell>
        <mxCell id="XYY6bWEJs2ji5yLr34Nl-170" value="3" style="text;html=1;align=center;verticalAlign=middle;resizable=0;points=[];autosize=1;strokeColor=none;fillColor=none;fontSize=16;" parent="1" vertex="1">
          <mxGeometry x="224.5" y="170.5" width="27" height="31" as="geometry" />
        </mxCell>
        <mxCell id="XYY6bWEJs2ji5yLr34Nl-171" value="5" style="text;html=1;align=center;verticalAlign=middle;resizable=0;points=[];autosize=1;strokeColor=none;fillColor=none;fontSize=16;" parent="1" vertex="1">
          <mxGeometry x="288.5" y="170.5" width="27" height="31" as="geometry" />
        </mxCell>
        <mxCell id="XYY6bWEJs2ji5yLr34Nl-172" value="7" style="text;html=1;align=center;verticalAlign=middle;resizable=0;points=[];autosize=1;strokeColor=none;fillColor=none;fontSize=16;" parent="1" vertex="1">
          <mxGeometry x="224.5" y="234.5" width="27" height="31" as="geometry" />
        </mxCell>
        <mxCell id="XYY6bWEJs2ji5yLr34Nl-175" value="1" style="text;html=1;align=center;verticalAlign=middle;resizable=0;points=[];autosize=1;strokeColor=none;fillColor=none;fontSize=16;" parent="1" vertex="1">
          <mxGeometry x="288.5" y="298.5" width="27" height="31" as="geometry" />
        </mxCell>
        <mxCell id="XYY6bWEJs2ji5yLr34Nl-183" value="" style="endArrow=none;html=1;rounded=0;fontSize=12;startSize=8;endSize=8;curved=1;fillColor=#f8cecc;strokeColor=#b85450;strokeWidth=7;entryX=1;entryY=0;entryDx=0;entryDy=0;exitX=0;exitY=1;exitDx=0;exitDy=0;" parent="1" source="XYY6bWEJs2ji5yLr34Nl-148" target="XYY6bWEJs2ji5yLr34Nl-4" edge="1">
          <mxGeometry width="50" height="50" relative="1" as="geometry">
            <mxPoint x="480" y="97" as="sourcePoint" />
            <mxPoint x="535" y="-227" as="targetPoint" />
          </mxGeometry>
        </mxCell>
        <mxCell id="XYY6bWEJs2ji5yLr34Nl-184" value="" style="endArrow=none;html=1;rounded=0;fontSize=12;startSize=8;endSize=8;curved=1;fillColor=#f8cecc;strokeColor=#b85450;strokeWidth=7;entryX=1;entryY=0;entryDx=0;entryDy=0;exitX=0;exitY=1;exitDx=0;exitDy=0;" parent="1" edge="1">
          <mxGeometry width="50" height="50" relative="1" as="geometry">
            <mxPoint x="142" y="346" as="sourcePoint" />
            <mxPoint x="142" y="-230" as="targetPoint" />
          </mxGeometry>
        </mxCell>
        <mxCell id="XYY6bWEJs2ji5yLr34Nl-185" value="" style="endArrow=none;html=1;rounded=0;fontSize=12;startSize=8;endSize=8;curved=1;fillColor=#f8cecc;strokeColor=#b85450;strokeWidth=7;entryX=1;entryY=1;entryDx=0;entryDy=0;exitX=0;exitY=0;exitDx=0;exitDy=0;" parent="1" source="XYY6bWEJs2ji5yLr34Nl-68" target="XYY6bWEJs2ji5yLr34Nl-61" edge="1">
          <mxGeometry width="50" height="50" relative="1" as="geometry">
            <mxPoint x="-30" y="366" as="sourcePoint" />
            <mxPoint x="-30" y="-210" as="targetPoint" />
          </mxGeometry>
        </mxCell>
        <mxCell id="XYY6bWEJs2ji5yLr34Nl-186" value="" style="endArrow=none;html=1;rounded=0;fontSize=12;startSize=8;endSize=8;curved=1;fillColor=#f8cecc;strokeColor=#b85450;strokeWidth=7;entryX=1;entryY=0;entryDx=0;entryDy=0;exitX=0;exitY=0;exitDx=0;exitDy=0;" parent="1" source="XYY6bWEJs2ji5yLr34Nl-122" target="XYY6bWEJs2ji5yLr34Nl-161" edge="1">
          <mxGeometry width="50" height="50" relative="1" as="geometry">
            <mxPoint x="-20" y="376" as="sourcePoint" />
            <mxPoint x="-20" y="-200" as="targetPoint" />
          </mxGeometry>
        </mxCell>
        <mxCell id="XYY6bWEJs2ji5yLr34Nl-190" value="0" style="rounded=0;whiteSpace=wrap;html=1;fontSize=16;fillColor=#ffe6cc;strokeColor=#d79b00;" parent="1" vertex="1">
          <mxGeometry x="389.5" y="-166" width="64" height="64" as="geometry" />
        </mxCell>
        <mxCell id="XYY6bWEJs2ji5yLr34Nl-191" value="6" style="rounded=0;whiteSpace=wrap;html=1;fontSize=16;fillColor=#ffe6cc;strokeColor=#d79b00;" parent="1" vertex="1">
          <mxGeometry x="453.5" y="-166" width="64" height="64" as="geometry" />
        </mxCell>
        <mxCell id="XYY6bWEJs2ji5yLr34Nl-192" value="0" style="rounded=0;whiteSpace=wrap;html=1;fontSize=16;fillColor=#ffe6cc;strokeColor=#d79b00;" parent="1" vertex="1">
          <mxGeometry x="517.5" y="-166" width="64" height="64" as="geometry" />
        </mxCell>
        <mxCell id="XYY6bWEJs2ji5yLr34Nl-193" value="2" style="rounded=0;whiteSpace=wrap;html=1;fontSize=16;fillColor=#d5e8d4;strokeColor=#82b366;" parent="1" vertex="1">
          <mxGeometry x="581.5" y="-166" width="64" height="64" as="geometry" />
        </mxCell>
        <mxCell id="XYY6bWEJs2ji5yLr34Nl-194" value="0" style="rounded=0;whiteSpace=wrap;html=1;fontSize=16;fillColor=#d5e8d4;strokeColor=#82b366;" parent="1" vertex="1">
          <mxGeometry x="645.5" y="-166" width="64" height="64" as="geometry" />
        </mxCell>
        <mxCell id="XYY6bWEJs2ji5yLr34Nl-195" value="0" style="rounded=0;whiteSpace=wrap;html=1;fontSize=16;fillColor=#d5e8d4;strokeColor=#82b366;" parent="1" vertex="1">
          <mxGeometry x="793.5" y="-166" width="64" height="64" as="geometry" />
        </mxCell>
        <mxCell id="XYY6bWEJs2ji5yLr34Nl-196" value="" style="endArrow=none;dashed=1;html=1;dashPattern=1 3;strokeWidth=2;rounded=0;fontSize=12;startSize=8;endSize=8;curved=1;" parent="1" edge="1">
          <mxGeometry width="50" height="50" relative="1" as="geometry">
            <mxPoint x="720.5" y="-103.18" as="sourcePoint" />
            <mxPoint x="777.5" y="-103.18" as="targetPoint" />
          </mxGeometry>
        </mxCell>
        <mxCell id="XYY6bWEJs2ji5yLr34Nl-198" value="1" style="rounded=0;whiteSpace=wrap;html=1;fontSize=16;fillColor=#d5e8d4;strokeColor=#82b366;" parent="1" vertex="1">
          <mxGeometry x="857.5" y="-166" width="64" height="64" as="geometry" />
        </mxCell>
        <mxCell id="XYY6bWEJs2ji5yLr34Nl-201" value="" style="rounded=0;whiteSpace=wrap;html=1;fontSize=16;" parent="1" vertex="1">
          <mxGeometry x="431.5" y="289" width="64" height="64" as="geometry" />
        </mxCell>
        <mxCell id="XYY6bWEJs2ji5yLr34Nl-202" value="" style="rounded=0;whiteSpace=wrap;html=1;fontSize=16;" parent="1" vertex="1">
          <mxGeometry x="495.5" y="289" width="64" height="64" as="geometry" />
        </mxCell>
        <mxCell id="XYY6bWEJs2ji5yLr34Nl-206" value="" style="rounded=0;whiteSpace=wrap;html=1;fontSize=16;" parent="1" vertex="1">
          <mxGeometry x="644" y="289" width="64" height="64" as="geometry" />
        </mxCell>
        <mxCell id="XYY6bWEJs2ji5yLr34Nl-207" value="" style="rounded=0;whiteSpace=wrap;html=1;fontSize=16;" parent="1" vertex="1">
          <mxGeometry x="708" y="289" width="64" height="64" as="geometry" />
        </mxCell>
        <mxCell id="XYY6bWEJs2ji5yLr34Nl-232" style="edgeStyle=none;curved=1;rounded=0;orthogonalLoop=1;jettySize=auto;html=1;exitX=0.5;exitY=1;exitDx=0;exitDy=0;fontSize=12;startSize=8;endSize=8;" parent="1" source="XYY6bWEJs2ji5yLr34Nl-208" target="XYY6bWEJs2ji5yLr34Nl-227" edge="1">
          <mxGeometry relative="1" as="geometry" />
        </mxCell>
        <mxCell id="XYY6bWEJs2ji5yLr34Nl-208" value="" style="rounded=0;whiteSpace=wrap;html=1;fontSize=16;" parent="1" vertex="1">
          <mxGeometry x="772" y="289" width="64" height="64" as="geometry" />
        </mxCell>
        <mxCell id="XYY6bWEJs2ji5yLr34Nl-209" value="" style="rounded=0;whiteSpace=wrap;html=1;fontSize=16;" parent="1" vertex="1">
          <mxGeometry x="836" y="289" width="64" height="64" as="geometry" />
        </mxCell>
        <mxCell id="XYY6bWEJs2ji5yLr34Nl-210" value="" style="endArrow=classic;html=1;rounded=0;fontSize=12;startSize=8;endSize=8;curved=1;entryX=0.75;entryY=0;entryDx=0;entryDy=0;" parent="1" source="XYY6bWEJs2ji5yLr34Nl-201" target="XYY6bWEJs2ji5yLr34Nl-219" edge="1">
          <mxGeometry width="50" height="50" relative="1" as="geometry">
            <mxPoint x="310.5" y="198" as="sourcePoint" />
            <mxPoint x="494.5" y="175.49999999999977" as="targetPoint" />
          </mxGeometry>
        </mxCell>
        <mxCell id="XYY6bWEJs2ji5yLr34Nl-212" value="0" style="rounded=0;whiteSpace=wrap;html=1;fontSize=16;fillColor=#ffe6cc;strokeColor=#d79b00;" parent="1" vertex="1">
          <mxGeometry x="-76" y="411.5" width="64" height="64" as="geometry" />
        </mxCell>
        <mxCell id="XYY6bWEJs2ji5yLr34Nl-213" value="6" style="rounded=0;whiteSpace=wrap;html=1;fontSize=16;fillColor=#ffe6cc;strokeColor=#d79b00;" parent="1" vertex="1">
          <mxGeometry x="-12" y="411.5" width="64" height="64" as="geometry" />
        </mxCell>
        <mxCell id="XYY6bWEJs2ji5yLr34Nl-214" value="0" style="rounded=0;whiteSpace=wrap;html=1;fontSize=16;fillColor=#ffe6cc;strokeColor=#d79b00;" parent="1" vertex="1">
          <mxGeometry x="52" y="411.5" width="64" height="64" as="geometry" />
        </mxCell>
        <mxCell id="XYY6bWEJs2ji5yLr34Nl-215" value="0" style="rounded=0;whiteSpace=wrap;html=1;fontSize=16;fillColor=#e1d5e7;strokeColor=#9673a6;" parent="1" vertex="1">
          <mxGeometry x="116" y="411.5" width="64" height="64" as="geometry" />
        </mxCell>
        <mxCell id="XYY6bWEJs2ji5yLr34Nl-216" value="0" style="rounded=0;whiteSpace=wrap;html=1;fontSize=16;fillColor=#e1d5e7;strokeColor=#9673a6;" parent="1" vertex="1">
          <mxGeometry x="180" y="411.5" width="64" height="64" as="geometry" />
        </mxCell>
        <mxCell id="XYY6bWEJs2ji5yLr34Nl-217" value="0" style="rounded=0;whiteSpace=wrap;html=1;fontSize=16;fillColor=#e1d5e7;strokeColor=#9673a6;" parent="1" vertex="1">
          <mxGeometry x="244" y="411.5" width="64" height="64" as="geometry" />
        </mxCell>
        <mxCell id="XYY6bWEJs2ji5yLr34Nl-218" value="1" style="rounded=0;whiteSpace=wrap;html=1;fontSize=16;fillColor=#e1d5e7;strokeColor=#9673a6;" parent="1" vertex="1">
          <mxGeometry x="308" y="411.5" width="64" height="64" as="geometry" />
        </mxCell>
        <mxCell id="XYY6bWEJs2ji5yLr34Nl-219" value="0" style="rounded=0;whiteSpace=wrap;html=1;fontSize=16;fillColor=#e1d5e7;strokeColor=#9673a6;" parent="1" vertex="1">
          <mxGeometry x="372" y="411.5" width="64" height="64" as="geometry" />
        </mxCell>
        <mxCell id="XYY6bWEJs2ji5yLr34Nl-220" value="0" style="rounded=0;whiteSpace=wrap;html=1;fontSize=16;fillColor=#e1d5e7;strokeColor=#9673a6;" parent="1" vertex="1">
          <mxGeometry x="436" y="411.5" width="64" height="64" as="geometry" />
        </mxCell>
        <mxCell id="XYY6bWEJs2ji5yLr34Nl-221" value="9" style="rounded=0;whiteSpace=wrap;html=1;fontSize=16;" parent="1" vertex="1">
          <mxGeometry x="303.5" y="508" width="64" height="64" as="geometry" />
        </mxCell>
        <mxCell id="XYY6bWEJs2ji5yLr34Nl-222" value="0" style="rounded=0;whiteSpace=wrap;html=1;fontSize=16;" parent="1" vertex="1">
          <mxGeometry x="367.5" y="508" width="64" height="64" as="geometry" />
        </mxCell>
        <mxCell id="XYY6bWEJs2ji5yLr34Nl-223" value="6" style="rounded=0;whiteSpace=wrap;html=1;fontSize=16;" parent="1" vertex="1">
          <mxGeometry x="431.5" y="508" width="64" height="64" as="geometry" />
        </mxCell>
        <mxCell id="XYY6bWEJs2ji5yLr34Nl-224" value="0" style="rounded=0;whiteSpace=wrap;html=1;fontSize=16;" parent="1" vertex="1">
          <mxGeometry x="495.5" y="508" width="64" height="64" as="geometry" />
        </mxCell>
        <mxCell id="XYY6bWEJs2ji5yLr34Nl-225" value="5" style="rounded=0;whiteSpace=wrap;html=1;fontSize=16;" parent="1" vertex="1">
          <mxGeometry x="559.5" y="508" width="64" height="64" as="geometry" />
        </mxCell>
        <mxCell id="XYY6bWEJs2ji5yLr34Nl-226" value="0" style="rounded=0;whiteSpace=wrap;html=1;fontSize=16;" parent="1" vertex="1">
          <mxGeometry x="623.5" y="508" width="64" height="64" as="geometry" />
        </mxCell>
        <mxCell id="XYY6bWEJs2ji5yLr34Nl-227" value="0" style="rounded=0;whiteSpace=wrap;html=1;fontSize=16;" parent="1" vertex="1">
          <mxGeometry x="687.5" y="508" width="64" height="64" as="geometry" />
        </mxCell>
        <mxCell id="XYY6bWEJs2ji5yLr34Nl-228" value="7" style="rounded=0;whiteSpace=wrap;html=1;fontSize=16;" parent="1" vertex="1">
          <mxGeometry x="751.5" y="508" width="64" height="64" as="geometry" />
        </mxCell>
        <mxCell id="XYY6bWEJs2ji5yLr34Nl-229" value="3" style="rounded=0;whiteSpace=wrap;html=1;fontSize=16;" parent="1" vertex="1">
          <mxGeometry x="815.5" y="508" width="64" height="64" as="geometry" />
        </mxCell>
        <mxCell id="XYY6bWEJs2ji5yLr34Nl-233" value="" style="endArrow=none;dashed=1;html=1;dashPattern=1 3;strokeWidth=2;rounded=0;fontSize=12;startSize=8;endSize=8;curved=1;" parent="1" edge="1">
          <mxGeometry width="50" height="50" relative="1" as="geometry">
            <mxPoint x="573.5" y="353" as="sourcePoint" />
            <mxPoint x="630.5" y="353" as="targetPoint" />
          </mxGeometry>
        </mxCell>
        <mxCell id="XYY6bWEJs2ji5yLr34Nl-234" value="&lt;font style=&quot;font-size: 26px;&quot;&gt;Reihenrepräsentation:&lt;/font&gt;" style="text;html=1;align=center;verticalAlign=middle;resizable=0;points=[];autosize=1;strokeColor=none;fillColor=none;fontSize=16;" parent="1" vertex="1">
          <mxGeometry x="389.5" y="-232" width="273" height="43" as="geometry" />
        </mxCell>
        <mxCell id="XYY6bWEJs2ji5yLr34Nl-235" value="&lt;font style=&quot;font-size: 26px;&quot;&gt;Gitterrepräsentation:&lt;/font&gt;" style="text;html=1;align=center;verticalAlign=middle;resizable=0;points=[];autosize=1;strokeColor=none;fillColor=none;fontSize=16;" parent="1" vertex="1">
          <mxGeometry x="408.5" y="243" width="254" height="43" as="geometry" />
        </mxCell>
      </root>
    </mxGraphModel>
  </diagram>
</mxfile>
